<svg xmlns="http://www.w3.org/2000/svg" viewBox="0 0 700 330"><defs><style>.c-1{fill:#ce453a;}.c-1,.c-2,.c-3,.c-4,.c-5{stroke-width:0px;}.c-2{fill:#754872;}.c-3{fill:#dd6333;}.c-4{fill:#ef9047;}.c-5{fill:#f2e1d1;}</style></defs><circle class="c-2" cx="167.05" cy="165" r="164"></circle><circle class="c-1" cx="167.05" cy="165" r="136.67"></circle><circle class="c-3" cx="167.05" cy="165" r="109.33"></circle><circle class="c-4" cx="167.05" cy="165" r="82"></circle><path class="c-2" d="M407.89,67.31c9.59,0,16.07,1.73,16.07,4.97v8.9c0,1.27-.46,3.47-4.39,3.47h-.92c-1.85,0-6.01-1.27-9.36-1.27-2.77,0-4.97.92-4.97,4.62s1.04,5.43,5.55,9.13c13.75,11.33,16.53,19.42,16.53,28.78,0,5.32-.12,10.17-3.12,14.68-3.81,5.78-9.82,7.98-12.37,8.67-3.12.81-7.51,1.27-11.1,1.27-8.55,0-16.88-1.62-16.88-6.24v-8.9c0-1.39,1.16-2.77,4.28-2.77s5.55,1.73,12.14,1.73c3.24,0,7.63-2.54,7.63-6.13,0-2.66-.12-4.62-7.17-11.56-10.75-10.52-15.83-15.37-15.83-24.85,0-22.77,14.68-24.5,23.93-24.5Z"></path><path class="c-2" d="M433.65,99.55c0-18.61,1.73-32.25,26.12-32.25s24.85,13.41,24.85,31.79c0,6.94.35,13.75.35,19.88,0,18.26-2.89,31.56-25.2,31.56-24.39,0-26.12-13.64-26.12-32.13,0-3.12.12-6.24.12-9.48s-.12-6.36-.12-9.36ZM453.42,89.84v36.41c0,3.47,0,8.09,5.78,8.09s5.78-4.62,5.78-8.09v-36.41c0-2.89,0-6.36-5.78-6.36s-5.78,3.47-5.78,6.36Z"></path><path class="c-2" d="M527.67,133.19c4.85,0,5.43,2.54,5.43,6.01v1.5c0,4.62,0,9.25-6.94,9.25h-26.12c-6.94,0-6.94-4.62-6.94-9.25v-63.57c0-4.62,0-9.25,6.94-9.25h5.78c6.94,0,6.94,4.62,6.94,9.25v49.82c0,2.77,0,6.36,3.58,6.47,6.13,0,8.9-.23,11.33-.23Z"></path><path class="c-2" d="M418.41,179.47c2.89,0,4.39,1.39,4.39,3.7v10.17c0,1.16,0,2.89-4.39,2.89-2.31,0-2.43-.23-3.7-.23-10.98,0-10.98,20-10.98,24.16,0,3.93.12,25.43,10.52,25.43,1.5,0,1.5-.23,4.16-.23,4.39,0,4.39,4.16,4.39,5.32v7.74c0,2.89-1.5,4.28-4.39,4.28-16.41,0-35.48-7.51-35.48-42.77,0-32.94,19.07-40.46,35.48-40.46Z"></path><path class="c-2" d="M450.14,240.96c.23,2.54,2.54,3.81,4.85,3.81,6.59,0,8.78-.23,11.21-.23,4.85,0,6.36,1.39,6.36,4.85v8.09c0,3.47-1.16,4.62-4.62,4.62h-30.51c-6.94,0-6.94-6.94-6.94-9.25v-63.57c0-4.62,0-9.25,6.94-9.25h29.82c2.89,0,5.43,1.16,5.43,3.47v9.82c0,2.77-2.31,2.89-5.2,2.89-4.51,0-8.09-.23-10.98-.23-6.36,0-6.36,2.31-6.36,6.01,0,7.51,0,9.48,5.78,9.48,7.17,0,8.32-.23,10.98-.23,4.05,0,4.28,4.05,4.28,5.32v7.4c0,3.47-2.43,3.7-5.32,3.7-5.9,0-9.59-.23-12.02-.23-3.7,0-3.7,1.62-3.7,5.43v8.09Z"></path><path class="c-2" d="M516.46,217.04c.35,0,.58-.35.58-1.16v-26.58c0-4.62,0-9.25,6.93-9.25h5.78c6.94,0,6.94,4.62,6.94,9.25v63.57c0,4.62,0,9.25-6.94,9.25-10.4,0-11.21-1.85-12.83-5.32l-15.37-33.4c-.35-.69-.69-1.16-.92-1.16-.35,0-.46.46-.46,1.16l.12,29.47c0,4.62,0,9.25-6.94,9.25h-5.78c-6.94,0-6.94-4.62-6.94-9.25v-63.57c0-4.62,0-9.25,6.94-9.25h6.13c3.81,0,5.09.46,6.82,4.05l14.91,31.79c.35.81.69,1.16,1.04,1.16Z"></path><path class="c-2" d="M575.43,253.68c-.23,4.39-.46,8.44-6.94,8.44h-5.78c-6.93,0-6.93-4.62-6.93-9.25v-52.82c0-2.89-.58-3.58-3.01-3.58-.81,0-1.96.12-3.35.12-2.89,0-5.2-.46-5.2-3.24v-9.82c0-2.31,2.54-3.47,5.43-3.47h31.9c2.89,0,5.43,1.16,5.43,3.47v9.82c0,2.77-2.31,3.24-5.2,3.24-.81,0-1.85-.12-3.24-.12-2.89,0-3.12.69-3.12,3.58v53.63Z"></path><path class="c-2" d="M623.88,180.05c17.22,0,22.08,12.37,22.08,26.01,0,8.32-.12,13.64-6.7,19.19-3.24,2.77-5.32,1.16-5.32,5.55,0,4.74,1.5,10.52,5.32,10.52,2.08,0,3.35-.58,3.7-.58,3.7,0,4.28,3.12,4.28,8.44,0,2.54-.12,5.66-.12,9.13,0,2.31-.92,4.39-6.93,4.39-10.63,0-16.07-7.86-18.26-16.41-2.77-10.75-6.24-12.6-6.94-12.6-.92,0-.92,1.85-.92,2.77v16.41c0,4.62,0,9.25-6.94,9.25h-8.09c-4.62,0-4.62-4.62-4.62-9.25v-63.57c0-4.62,0-9.25,6.94-9.25h22.54ZM613.94,200.62c0,1.5.12,4.16.12,6.59s-.12,4.39-.12,5.78c0,3.81.69,4.51,5.32,4.51,5.2,0,6.36-5.09,6.36-10.29s-1.16-11.56-6.36-11.56c-4.62,0-5.32.81-5.32,4.97Z"></path><path class="c-2" d="M674.41,240.96c.23,2.54,2.54,3.81,4.85,3.81,6.59,0,8.78-.23,11.21-.23,4.85,0,6.36,1.39,6.36,4.85v8.09c0,3.47-1.16,4.62-4.62,4.62h-30.51c-6.94,0-6.94-6.94-6.94-9.25v-63.57c0-4.62,0-9.25,6.94-9.25h29.82c2.89,0,5.43,1.16,5.43,3.47v9.82c0,2.77-2.31,2.89-5.2,2.89-4.51,0-8.09-.23-10.98-.23-6.36,0-6.36,2.31-6.36,6.01,0,7.51,0,9.48,5.78,9.48,7.17,0,8.32-.23,10.98-.23,4.04,0,4.28,4.05,4.28,5.32v7.4c0,3.47-2.43,3.7-5.32,3.7-5.89,0-9.59-.23-12.02-.23-3.7,0-3.7,1.62-3.7,5.43v8.09Z"></path><path class="c-5" d="M220.29,160.53c-1.1.87-1.85,2.14-2.1,3.57l-.07.41-.41-.02c-10.18-.55-24.78-1.3-36.52-1.74l-1.96-.07,1.78-.82c11.35-5.2,25.6-11.99,33.08-15.58l.37-.18.22.35c.54.86,1.24,1.52,2.06,1.98,2.81,1.56,6.37.55,7.93-2.26.76-1.36.94-2.93.51-4.43-.43-1.5-1.41-2.74-2.77-3.5-1.36-.76-2.94-.94-4.43-.51-1.5.43-2.74,1.41-3.5,2.77-.69,1.23-.89,2.69-.57,4.1l.09.4-.39.14c-7.86,2.77-22.79,8.06-34.45,12.39l-1.84.68,1.33-1.44c8-8.63,17.81-19.49,24.62-27.09l.28-.31.34.24c.83.59,1.74.95,2.69,1.06,1.55.18,3.07-.25,4.29-1.22,1.22-.97,1.99-2.35,2.17-3.9.37-3.19-1.93-6.09-5.12-6.46-1.54-.17-3.07.25-4.29,1.22-1.22.97-1.99,2.35-2.17,3.9-.16,1.41.21,2.85,1.06,4.03l.24.34-.31.28c-7.61,6.83-18.49,16.64-27.12,24.64l-1.44,1.33.68-1.84c4.36-11.75,9.64-26.65,12.39-34.49l.14-.39.41.09c1,.23,1.97.21,2.89-.05,1.5-.43,2.74-1.41,3.5-2.77.76-1.36.94-2.93.51-4.43-.43-1.5-1.41-2.74-2.77-3.5-1.36-.76-2.94-.94-4.43-.51-1.5.43-2.74,1.41-3.5,2.77-.76,1.36-.94,2.93-.51,4.43.39,1.37,1.28,2.55,2.52,3.32l.35.22-.18.38c-3.57,7.44-10.34,21.63-15.62,33.15l-.82,1.78-.07-1.96c-.47-12.57-1.3-28.33-1.75-36.61l-.02-.42.41-.07c1.01-.17,1.9-.56,2.65-1.15,1.22-.97,1.99-2.35,2.17-3.9.18-1.55-.25-3.07-1.22-4.29-1.99-2.52-5.67-2.95-8.19-.95-2.52,2-2.94,5.67-.95,8.19.88,1.11,2.16,1.86,3.6,2.11l.41.07-.02.42c-.55,10.19-1.31,24.82-1.75,36.6l-.07,1.96-.82-1.78c-4.95-10.78-11.23-23.98-15.62-33.15l-.18-.38.35-.22c.87-.54,1.54-1.24,2.01-2.08,1.56-2.81.55-6.36-2.25-7.93-1.36-.76-2.94-.94-4.43-.51-1.5.43-2.74,1.41-3.5,2.77s-.94,2.93-.51,4.43c.43,1.5,1.41,2.74,2.77,3.5,1.24.69,2.71.89,4.13.57l.41-.09.14.39c2.73,7.77,7.97,22.58,12.37,34.44l.68,1.84-1.44-1.33c-9.11-8.46-20.88-19.06-27.09-24.63l-.31-.28.24-.34c.58-.83.93-1.72,1.04-2.66.18-1.55-.25-3.07-1.22-4.29-.97-1.22-2.35-1.99-3.9-2.17-1.55-.17-3.07.25-4.29,1.22-1.22.97-1.99,2.35-2.17,3.9-.37,3.19,1.93,6.09,5.12,6.46,1.39.16,2.82-.21,4.01-1.04l.34-.24.28.31c6.8,7.58,16.59,18.43,24.6,27.05l1.34,1.44-1.84-.68c-11.73-4.36-26.59-9.62-34.41-12.38l-.39-.14.09-.4c.22-.99.21-1.95-.05-2.86-.88-3.09-4.11-4.89-7.2-4.01-1.5.43-2.74,1.41-3.5,2.77s-.94,2.93-.51,4.43c.88,3.09,4.11,4.89,7.2,4.01,1.36-.39,2.53-1.27,3.3-2.49l.22-.35.37.18c9.23,4.42,22.47,10.72,33.12,15.6l1.78.82-1.96.07c-12.51.47-28.28,1.3-36.56,1.75l-.42.02-.07-.41c-.17-1.01-.56-1.9-1.15-2.65-2-2.52-5.67-2.94-8.19-.95-2.52,2-2.94,5.67-.95,8.19.97,1.22,2.35,1.99,3.9,2.17,1.55.19,3.07-.25,4.29-1.22,1.11-.88,1.86-2.16,2.11-3.6l.07-.41.42.02c10.16.55,24.75,1.31,36.6,1.75l1.96.07-1.78.82c-11.46,5.26-25.69,12.05-33.15,15.62l-.38.18-.22-.35c-.54-.87-1.24-1.54-2.08-2.01-2.81-1.56-6.37-.55-7.93,2.26s-.55,6.37,2.26,7.93c1.36.76,2.94.94,4.43.51,1.5-.43,2.74-1.41,3.5-2.77.69-1.24.89-2.71.57-4.13l-.09-.41.39-.14c7.82-2.75,22.7-8.02,34.44-12.37l1.84-.68-1.33,1.44c-8.49,9.14-19.08,20.9-24.63,27.09l-.28.31-.34-.24c-.83-.58-1.73-.93-2.66-1.04-1.55-.18-3.07.25-4.29,1.22-1.22.97-1.99,2.35-2.17,3.9-.37,3.19,1.93,6.09,5.12,6.46,1.55.18,3.07-.25,4.29-1.22,1.22-.97,1.99-2.35,2.17-3.9.16-1.4-.21-2.82-1.04-4.01l-.24-.34.31-.28c6.17-5.54,17.9-16.1,27.05-24.6l1.44-1.34-.68,1.84c-4.37,11.77-9.63,26.61-12.38,34.41l-.14.39-.4-.09c-.99-.22-1.95-.2-2.86.05-1.5.43-2.74,1.41-3.5,2.77s-.94,2.93-.51,4.43c.43,1.5,1.41,2.74,2.77,3.5,1.36.76,2.93.94,4.43.51,1.5-.43,2.74-1.41,3.5-2.77.76-1.36.94-2.93.51-4.43-.39-1.36-1.27-2.53-2.49-3.31l-.35-.22.18-.37c4.29-8.96,10.42-21.84,15.26-32.37l.89-1.93v2.13c.06,35.51.24,121.04.3,149.02.79.01,1.58.03,2.37.03s1.58-.02,2.37-.03c.06-27.99.24-113.58.3-149.02v-2.12s.89,1.93.89,1.93c4.88,10.62,10.99,23.47,15.26,32.38l.18.37-.35.22c-.85.54-1.52,1.23-1.98,2.06-1.56,2.81-.55,6.37,2.25,7.93,2.81,1.56,6.37.55,7.93-2.26.76-1.36.94-2.93.51-4.43-.43-1.5-1.41-2.74-2.77-3.5-1.23-.69-2.69-.89-4.1-.57l-.4.09-.14-.39c-3.4-9.67-8.32-23.49-12.39-34.45l-.68-1.84,1.44,1.33c9.26,8.59,20.95,19.11,27.09,24.62l.31.28-.24.34c-.59.83-.95,1.74-1.06,2.69-.18,1.55.25,3.07,1.22,4.29.97,1.22,2.35,1.99,3.9,2.17,1.55.18,3.07-.25,4.29-1.22,1.22-.97,1.99-2.35,2.17-3.9.37-3.19-1.93-6.09-5.12-6.46-1.41-.16-2.84.21-4.04,1.06l-.34.24-.28-.31c-5.55-6.19-16.13-17.94-24.64-27.12l-1.33-1.44,1.84.68c11.74,4.36,26.65,9.64,34.49,12.39l.39.14-.09.41c-.23,1-.21,1.97.05,2.89.88,3.09,4.1,4.89,7.2,4.01,3.09-.88,4.89-4.11,4.01-7.2-.43-1.5-1.41-2.74-2.77-3.5-1.36-.76-2.93-.94-4.43-.51-1.37.39-2.55,1.28-3.32,2.52l-.22.35-.38-.18c-9.18-4.4-22.37-10.68-33.1-15.6l-1.78-.82,1.96-.07c11.71-.43,26.35-1.18,36.57-1.74l.41-.02.07.41c.17,1,.56,1.88,1.15,2.62,1.99,2.52,5.67,2.95,8.19.95,2.52-2,2.94-5.67.95-8.19-1.99-2.52-5.67-2.94-8.19-.95Z"></path></svg>